<svg width="289" height="143" viewBox="0 0 289 143" fill="none" xmlns="http://www.w3.org/2000/svg">
<path d="M62.0227 139.262L62.0222 139.262L62.02 139.261L62.0227 139.262Z" fill="#434244"/>
<path d="M67.0221 123.568C67.15 123.482 67.2754 123.395 67.403 123.309C67.2749 123.395 67.147 123.481 67.0188 123.566C67.0199 123.567 67.021 123.568 67.0221 123.568Z" fill="#434244"/>
<path d="M69.9099 121.574C69.0853 122.158 68.2492 122.736 67.4028 123.309C68.245 122.743 69.0812 122.165 69.9099 121.574Z" fill="#434244"/>
<path d="M134.544 27.375C134.544 27.0483 134.539 26.719 134.537 26.3915C132.211 27.7263 129.918 29.1323 127.66 30.6135C124.526 32.6697 121.495 34.8454 118.568 37.1327C118.376 39.4401 118.128 41.7136 117.826 43.9547C118.645 44.8157 119.354 45.7965 119.938 46.8939C120.927 48.7557 121.429 50.9878 121.429 53.5284C121.429 55.8152 120.827 57.8588 119.639 59.6018C119.367 60.0017 119.085 60.3818 118.795 60.7416C119.376 61.2878 119.914 61.9092 120.399 62.5943C121.064 63.5284 121.609 64.6113 122.022 65.8223C122.443 67.0639 122.656 68.4532 122.656 69.9514C122.656 72.7659 122.174 75.1913 121.225 77.1582C120.254 79.1735 118.901 80.8219 117.203 82.0579C115.587 83.2338 113.726 84.0696 111.676 84.5408C109.817 84.9704 107.847 85.1883 105.818 85.1883H104.028C99.8895 92.306 94.883 98.9655 88.9895 105.179C83.4258 111.043 77.0691 116.509 69.9101 121.574C69.0811 122.165 68.2453 122.742 67.4031 123.309C67.2757 123.395 67.15 123.482 67.0221 123.568C67.021 123.568 67.0199 123.567 67.0188 123.566C66.8293 123.692 66.6412 123.821 66.4511 123.946L66.4508 123.946C61.7612 127.032 56.8081 129.775 51.635 132.165C54.943 134.613 58.4045 136.98 62.0225 139.262L66.9187 142.357L71.8608 139.313L71.8652 139.31C82.5723 132.694 91.9452 125.275 99.956 117.049C107.967 108.824 114.613 99.7915 119.862 89.9766L119.862 89.9772C124.767 80.8142 128.442 70.9968 130.885 60.5551C133.33 50.1128 134.544 39.0476 134.544 27.375Z" fill="#434244"/>
<path d="M45.3587 105.248C39.4086 98.9555 34.376 92.2374 30.2238 85.0845C29.9067 85.1513 29.581 85.1882 29.2491 85.1882H21.238C19.9868 85.1882 18.812 84.7022 17.9299 83.8201L17.9189 83.8091L17.9082 83.7981C17.0415 82.9154 16.5643 81.747 16.5643 80.5079V44.0383C16.5643 44.0116 16.5679 43.9855 16.5682 43.9588C15.853 38.3799 15.493 32.6099 15.4927 26.6422C15.4927 26.4684 15.4957 26.2901 15.4971 26.1146L15.4979 26.1144C15.4446 20.5559 15.8049 14.9853 16.5825 9.42324C12.8014 10.878 9.06784 12.5008 5.39263 14.2925L5.39455 14.2916L0.445302 16.7002L0.184006 22.2243V22.2249C0.0605085 24.8398 0 27.425 0 29.9799C0 41.6115 1.28833 52.6446 3.87985 63.0591C7.76438 78.6808 14.5917 92.9033 24.3122 105.62C29.7491 112.736 36.0873 119.379 43.3107 125.551C48.774 123.297 53.9972 120.642 58.9283 117.611C53.9703 113.691 49.4473 109.57 45.3587 105.248Z" fill="#434244"/>
<path d="M119.065 26.0687C119.065 26.0761 119.065 26.0833 119.065 26.0907C120.346 25.1847 121.641 24.2985 122.952 23.4381C122.954 23.4373 122.952 23.4384 122.953 23.4378C126.624 21.0298 130.416 18.8013 134.308 16.7555L134.308 16.7508L129.26 14.2919C109.704 4.76444 88.5143 -0.00024326 67.3267 3.17896e-05C53.6116 3.17896e-05 39.8921 1.99909 26.6187 5.99144C25.9842 9.69581 25.5381 13.3845 25.285 17.0512C25.1621 18.8368 25.0845 20.6235 25.0515 22.4111C38.7438 17.7127 53.0345 15.3616 67.3267 15.3616C84.9458 15.3616 102.563 18.932 119.065 26.0687Z" fill="#434244"/>
<path d="M129.26 14.2917H129.26L129.261 14.2922L129.26 14.2917Z" fill="#434244"/>
<path d="M79.1267 60.8615C77.7941 59.9208 76.3619 59.2079 74.8346 58.7277C73.307 58.2472 71.9015 57.8844 70.6219 57.6341C70.3741 57.6011 69.805 57.5012 68.9174 57.342C68.0277 57.1824 67.1046 56.9613 66.1438 56.6755C65.1831 56.3922 64.3307 56.0536 63.5848 55.6617C62.8388 55.2722 62.4648 54.8272 62.4648 54.3291C62.4648 53.8332 62.6152 53.4415 62.9186 53.156C63.2195 52.8724 63.6024 52.6689 64.065 52.5426C64.5255 52.4189 65.0148 52.3479 65.5305 52.33C66.0465 52.3124 66.4978 52.3036 66.8898 52.3036C68.2048 52.3036 69.6436 52.5426 71.2086 53.0231C72.7714 53.5034 74.4627 54.3115 76.2756 55.4491C76.5589 55.6617 76.8777 55.7327 77.2341 55.6617C77.5884 55.591 77.8739 55.4139 78.0862 55.1284L82.2458 49.2112C82.4584 48.9257 82.5489 48.6069 82.5137 48.2505C82.476 47.8962 82.3168 47.5931 82.0332 47.345C79.8639 45.6738 77.5972 44.4031 75.2351 43.5331C72.871 42.6609 70.1948 42.225 67.2108 42.225C65.5041 42.225 63.7443 42.4131 61.9334 42.785C60.1183 43.159 58.4735 43.8167 56.9993 44.7573C55.525 45.7002 54.3074 46.9709 53.3491 48.5715C52.3859 50.1698 51.9078 52.1974 51.9078 54.6501C51.9078 56.3215 52.1647 57.7669 52.6804 58.9956C53.1962 60.2217 53.8802 61.2799 54.7345 62.1677C55.5869 63.0553 56.5542 63.7858 57.639 64.3524C58.7236 64.9215 59.8149 65.3929 60.9195 65.767C62.0197 66.1389 63.0955 66.4244 64.1448 66.6191C65.1941 66.8141 66.1084 66.9844 66.8898 67.1263C67.7067 67.3034 68.5079 67.4448 69.2893 67.5513C70.0707 67.6596 70.757 67.8013 71.3415 67.9784C71.9301 68.1577 72.3996 68.3792 72.7558 68.6446C73.11 68.9125 73.2872 69.2777 73.2872 69.7382C73.2872 70.6258 72.8798 71.2944 72.0629 71.7372C71.2441 72.182 70.0531 72.4034 68.4903 72.4034C66.8543 72.4034 65.0945 72.0494 63.2129 71.3387C61.3269 70.6258 59.4255 69.6496 57.5062 68.4058C57.2229 68.2265 56.9019 68.1753 56.5454 68.2441C56.1912 68.3173 55.9057 68.4941 55.6931 68.7777L51.589 74.6968C51.3745 74.9823 51.2857 75.3101 51.3214 75.6842C51.3566 76.0561 51.5161 76.3482 51.8017 76.563C52.7954 77.3821 53.889 78.1544 55.08 78.8828C56.2709 79.6111 57.5593 80.2421 58.945 80.7754C60.3329 81.309 61.825 81.7273 63.4255 82.0282C65.0236 82.3294 66.7481 82.4799 68.5965 82.4799C70.8719 82.4799 72.942 82.2408 74.8079 81.7606C76.6741 81.2801 78.2744 80.543 79.6073 79.5492C80.9396 78.553 81.9801 77.2822 82.726 75.7373C83.4723 74.1899 83.8463 72.3503 83.8463 70.2184C83.8463 67.9451 83.3925 66.0503 82.4848 64.5384C81.5794 63.0286 80.4594 61.8024 79.1267 60.8615Z" fill="#9E1B33"/>
<path d="M48.3307 42.7588H21.238C20.8838 42.7588 20.5828 42.8828 20.3348 43.1328C20.0891 43.3809 19.9651 43.684 19.9651 44.0383V80.508C19.9651 80.8644 20.0891 81.1653 20.3348 81.4156C20.5828 81.6635 20.8838 81.7872 21.238 81.7872H29.2491C29.6012 81.7872 29.9021 81.6635 30.1502 81.4156C30.398 81.1653 30.522 80.8644 30.522 80.508V68.7248C30.522 68.3706 30.6458 68.0672 30.8961 67.8194C31.1439 67.5694 31.4451 67.4453 31.8016 67.4453H46.1991C46.553 67.4453 46.8542 67.3213 47.1042 67.0712C47.3523 66.8232 47.4764 66.522 47.4764 66.1658V58.7015C47.4764 58.345 47.3523 58.0438 47.1042 57.7938C46.8542 57.5457 46.553 57.422 46.1991 57.422H31.8016C31.4451 57.422 31.1439 57.2979 30.8961 57.0523C30.6458 56.8064 30.522 56.5077 30.522 56.1556V53.942C30.522 53.5902 30.6458 53.2913 30.8961 53.0454C31.1439 52.7997 31.4451 52.6757 31.8016 52.6757H48.3307C48.685 52.6757 48.9881 52.5519 49.2384 52.3016C49.484 52.0516 49.6102 51.746 49.6102 51.3896V44.0449C49.6102 43.6884 49.484 43.3829 49.2384 43.135C48.9881 42.885 48.685 42.7588 48.3307 42.7588Z" fill="#9E1B33"/>
<path d="M107.257 71.1778C106.688 71.7112 106.086 71.9768 105.444 71.9768H99.4739C99.1175 71.9768 98.8144 71.8528 98.5685 71.6028C98.3185 71.3572 98.1944 71.0538 98.1944 70.6973V67.658C98.1944 67.304 98.3185 67.0006 98.5685 66.7506C98.8144 66.5047 99.1175 66.3785 99.4739 66.3785H105.072C105.995 66.3785 106.733 66.7063 107.286 67.3656C107.835 68.0233 108.112 68.6719 108.112 69.3116C108.112 70.0223 107.826 70.6442 107.257 71.1778ZM98.1944 53.8494C98.1944 53.493 98.3185 53.1921 98.5685 52.9418C98.8144 52.6939 99.1175 52.5699 99.4739 52.5699H104.539C104.999 52.5699 105.488 52.8001 106.004 53.2627C106.52 53.7254 106.779 54.2766 106.779 54.9141C106.779 55.5891 106.564 56.2047 106.137 56.7537C105.712 57.3049 105.143 57.5816 104.43 57.5816H99.4739C99.1175 57.5816 98.8144 57.4575 98.5685 57.2075C98.3185 56.9594 98.1944 56.656 98.1944 56.302V53.8494ZM118.801 66.9121C118.498 66.0245 118.108 65.2409 117.628 64.5656C117.15 63.8904 116.623 63.3216 116.054 62.8587C115.487 62.3985 114.919 62.0066 114.349 61.6856C113.639 61.3313 113.604 60.9218 114.243 60.4616C115.166 59.7842 116.03 58.8611 116.829 57.6877C117.628 56.5147 118.029 55.129 118.029 53.5284C118.029 51.5385 117.664 49.8604 116.935 48.4901C116.207 47.1223 115.246 46.0108 114.055 45.1587C112.864 44.3041 111.487 43.691 109.922 43.3191C108.359 42.9451 106.726 42.7591 105.019 42.7591H88.917C88.5608 42.7591 88.2574 42.8829 88.0096 43.1332C87.7615 43.381 87.6375 43.6844 87.6375 44.0387V80.5083C87.6375 80.8623 87.7615 81.1657 88.0096 81.4135C88.2574 81.6638 88.5608 81.7876 88.917 81.7876H105.818C107.596 81.7876 109.292 81.6017 110.91 81.2276C112.528 80.8557 113.958 80.2138 115.202 79.3083C116.446 78.4031 117.433 77.1943 118.161 75.6826C118.89 74.1728 119.255 72.2624 119.255 69.9514C119.255 68.8135 119.102 67.8019 118.801 66.9121Z" fill="#9E1B33"/>
<path d="M160.627 58.7975C158.716 58.7975 157.282 59.4505 156.327 60.7562C155.372 62.0602 154.893 64.1819 154.893 67.1233C154.893 70.0264 155.372 72.1311 156.327 73.4351C157.282 74.7408 158.716 75.3918 160.627 75.3918C164.56 75.3918 166.526 72.6364 166.526 67.1233C166.526 61.5739 164.56 58.7975 160.627 58.7975ZM166.801 78.1492C165.993 79.4725 164.752 80.5108 163.08 81.2644C161.408 82.0178 159.654 82.3929 157.815 82.3929C153.956 82.3929 150.98 81.1079 148.885 78.5348C146.79 75.9615 145.743 72.1589 145.743 67.1233C145.743 62.0514 146.79 58.2279 148.885 55.6565C150.98 53.0831 153.956 51.7964 157.815 51.7964C159.58 51.7964 161.28 52.1559 162.915 52.8713C164.551 53.5884 165.736 54.5711 166.471 55.8215V44.3544C166.471 43.3612 166.967 42.8664 167.959 42.8664H173.913C174.942 42.8664 175.457 43.3612 175.457 44.3544V80.2434C175.457 81.2729 174.942 81.787 173.913 81.787H168.621C167.739 81.787 167.224 81.3824 167.077 80.5749L166.801 78.1492Z" fill="#9E1B33"/>
<path d="M199.983 67.1234C199.983 61.5358 198.09 58.7437 194.304 58.7437C190.555 58.7437 188.681 61.5358 188.681 67.1234C188.681 72.6728 190.555 75.4475 194.304 75.4475C198.09 75.4475 199.983 72.6728 199.983 67.1234ZM183.471 78.4791C180.843 75.8694 179.53 72.0842 179.53 67.1234C179.53 62.1244 180.843 58.3202 183.471 55.7102C186.099 53.1022 189.71 51.7965 194.304 51.7965C198.899 51.7965 202.518 53.1022 205.164 55.7102C207.81 58.3202 209.134 62.1244 209.134 67.1234C209.134 72.0842 207.81 75.8694 205.164 78.4791C202.518 81.0891 198.899 82.3931 194.304 82.3931C189.71 82.3931 186.099 81.0891 183.471 78.4791Z" fill="#9E1B33"/>
<path d="M232.337 67.1234C232.337 61.5358 230.445 58.7437 226.66 58.7437C222.911 58.7437 221.035 61.5358 221.035 67.1234C221.035 72.6728 222.911 75.4475 226.66 75.4475C230.445 75.4475 232.337 72.6728 232.337 67.1234ZM215.827 78.4791C213.198 75.8694 211.885 72.0842 211.885 67.1234C211.885 62.1244 213.198 58.3202 215.827 55.7102C218.454 53.1022 222.065 51.7965 226.66 51.7965C231.254 51.7965 234.873 53.1022 237.519 55.7102C240.165 58.3202 241.488 62.1244 241.488 67.1234C241.488 72.0842 240.165 75.8694 237.519 78.4791C234.873 81.0891 231.254 82.3931 226.66 82.3931C222.065 82.3931 218.454 81.0891 215.827 78.4791Z" fill="#9E1B33"/>
<path d="M252.288 52.458C253.207 52.458 253.721 52.8989 253.832 53.781L254.273 57.53C254.934 56.0975 256.009 54.8386 257.497 53.7532C258.985 52.6698 260.722 52.1283 262.706 52.1283C263.663 52.1283 264.141 52.5865 264.141 53.5052V59.5703C264.141 60.3792 263.699 60.7821 262.817 60.7821C262.633 60.7821 262.331 60.7648 261.907 60.7282C261.486 60.6919 261.109 60.6727 260.777 60.6727C258.829 60.6727 257.277 61.3344 256.118 62.6574C254.962 63.9804 254.382 65.6527 254.382 67.6738V80.2433C254.382 81.2728 253.886 81.7869 252.894 81.7869H246.94C245.911 81.7869 245.396 81.2728 245.396 80.2433V53.9461C245.396 52.9545 245.911 52.458 246.94 52.458H252.288Z" fill="#9E1B33"/>
<path d="M276.54 82.3929C272.866 82.3929 269.631 81.8615 266.837 80.7955C265.919 80.4274 265.589 79.8215 265.846 78.9757L266.783 75.7774C267.004 74.8225 267.629 74.5097 268.657 74.8415C270.826 75.5395 272.939 75.8886 274.996 75.8886C278.452 75.8886 280.179 75.062 280.179 73.4073C280.179 72.5998 279.783 71.9556 278.993 71.4781C278.204 71.0007 276.889 70.4676 275.052 69.879C272.039 68.8511 269.999 67.9308 268.933 67.1233C266.912 65.6163 265.901 63.3746 265.901 60.3967C265.901 57.5301 266.921 55.3803 268.961 53.9462C271.001 52.5137 273.876 51.7967 277.587 51.7967C281.299 51.7967 284.333 52.2932 286.684 53.2847C287.602 53.6527 287.934 54.2779 287.677 55.16L286.739 58.2472C286.446 59.2021 285.821 59.5338 284.866 59.2387C282.843 58.6152 280.878 58.3027 278.966 58.3027C276.135 58.3027 274.722 59.0927 274.722 60.6728C274.722 61.482 275.116 62.1245 275.906 62.602C276.696 63.0795 278.047 63.6681 279.959 64.3662C281.466 64.9182 282.65 65.3957 283.515 65.8003C284.378 66.2049 285.288 66.7641 286.243 67.4811C287.2 68.1982 287.898 69.0613 288.339 70.0718C288.78 71.0823 289 72.2873 289 73.6835C289 79.4898 284.847 82.3929 276.54 82.3929Z" fill="#9E1B33"/>
<path d="M149.021 93.3826V97.7265H149.621C150.299 97.7265 150.791 97.5678 151.097 97.2504C151.405 96.9332 151.557 96.3537 151.557 95.5121C151.557 94.7056 151.402 94.1497 151.092 93.843C150.782 93.5364 150.287 93.3826 149.61 93.3826H149.021ZM147.492 99.3317C147.285 99.3317 147.181 99.2282 147.181 99.0214V92.0882C147.181 91.8811 147.285 91.7777 147.492 91.7777H149.685C150.934 91.7777 151.866 92.072 152.483 92.6606C153.1 93.2492 153.408 94.1995 153.408 95.5121C153.408 96.8672 153.102 97.8423 152.488 98.438C151.875 99.0341 150.944 99.3317 149.696 99.3317H147.492Z" fill="#434244"/>
<path d="M159.299 96.229V97.7907H162.167C162.38 97.7907 162.487 97.8941 162.487 98.1015V99.0106C162.487 99.2243 162.38 99.3315 162.167 99.3315H157.801C157.594 99.3315 157.49 99.2284 157.49 99.0216V92.0884C157.49 91.881 157.594 91.7779 157.801 91.7779H162.124C162.33 91.7779 162.434 91.881 162.434 92.0884V93.0087C162.434 93.2224 162.33 93.3291 162.124 93.3291H159.299V94.7522H161.974C162.173 94.7522 162.273 94.8557 162.273 95.0628V95.9185C162.273 96.1256 162.173 96.229 161.974 96.229H159.299Z" fill="#434244"/>
<path d="M171.005 98.8875C170.466 99.255 169.765 99.4387 168.902 99.4387C167.883 99.4387 167.065 99.2819 166.452 98.9678C166.281 98.8823 166.224 98.7541 166.281 98.5828L166.581 97.7697C166.645 97.5698 166.777 97.509 166.976 97.5874C167.476 97.8019 168.018 97.9083 168.603 97.9083C169.516 97.9083 169.972 97.6699 169.972 97.1916C169.972 97.0419 169.906 96.9044 169.774 96.7795C169.642 96.6547 169.499 96.5587 169.347 96.4913C169.194 96.4231 168.955 96.3323 168.635 96.2179C168.35 96.1183 168.121 96.0309 167.95 95.9563C167.779 95.881 167.579 95.7737 167.351 95.6351C167.123 95.4959 166.946 95.3498 166.821 95.1964C166.696 95.0432 166.589 94.8451 166.5 94.6025C166.411 94.3597 166.367 94.0852 166.367 93.7785C166.367 93.0727 166.608 92.5429 167.089 92.1898C167.57 91.8366 168.264 91.66 169.17 91.66C170.048 91.66 170.764 91.8025 171.32 92.0883C171.499 92.1879 171.56 92.3166 171.502 92.4736L171.203 93.2441C171.131 93.4363 171 93.4971 170.807 93.4259C170.372 93.276 169.887 93.2009 169.352 93.2009C168.589 93.2009 168.207 93.4116 168.207 93.8321C168.207 93.9248 168.23 94.0125 168.277 94.0942C168.323 94.1767 168.373 94.2419 168.426 94.2925C168.479 94.342 168.576 94.4028 168.715 94.4743C168.855 94.5456 168.965 94.5992 169.047 94.6344C169.129 94.6705 169.273 94.7274 169.48 94.8058C169.737 94.9059 169.911 94.9733 170.004 95.0093C170.097 95.0445 170.25 95.1125 170.465 95.2126C170.678 95.3121 170.83 95.3977 170.919 95.4689C171.008 95.5402 171.124 95.6384 171.267 95.7632C171.409 95.8881 171.511 96.0163 171.571 96.1486C171.633 96.2806 171.688 96.4377 171.738 96.6195C171.787 96.8013 171.812 96.9993 171.812 97.2133C171.812 97.962 171.543 98.5201 171.005 98.8875Z" fill="#434244"/>
<path d="M175.863 92.0884C175.863 91.881 175.967 91.7779 176.174 91.7779H177.383C177.597 91.7779 177.704 91.881 177.704 92.0884V99.0216C177.704 99.2281 177.597 99.3315 177.383 99.3315H176.174C175.967 99.3315 175.863 99.2281 175.863 99.0216V92.0884Z" fill="#434244"/>
<path d="M187.993 94.7738C188.201 94.7738 188.304 94.8772 188.304 95.0838V98.5186C188.304 98.6828 188.221 98.811 188.058 98.9039C187.459 99.2675 186.617 99.4493 185.532 99.4493C183.072 99.4493 181.841 98.1511 181.841 95.5546C181.841 92.951 183.107 91.6495 185.639 91.6495C186.567 91.6495 187.316 91.8313 187.886 92.1949C188.064 92.3093 188.122 92.4449 188.058 92.6017L187.747 93.3826C187.683 93.5614 187.537 93.6109 187.308 93.5325C186.852 93.3474 186.389 93.2544 185.918 93.2544C185.133 93.2544 184.569 93.431 184.227 93.7841C183.885 94.1373 183.714 94.7273 183.714 95.5546C183.714 96.3748 183.879 96.9634 184.211 97.3199C184.543 97.6769 185.062 97.8549 185.767 97.8549C186.11 97.8549 186.41 97.8018 186.666 97.6945V96.1432H185.736C185.529 96.1432 185.426 96.0431 185.426 95.8437V95.0838C185.426 94.8772 185.529 94.7738 185.736 94.7738H187.993Z" fill="#434244"/>
<path d="M198.731 99.0216C198.731 99.2281 198.624 99.3315 198.41 99.3315H197.244C197.065 99.3315 196.937 99.2636 196.858 99.1283L194.312 94.8595V99.0216C194.312 99.2281 194.208 99.3315 194.002 99.3315H192.847C192.639 99.3315 192.536 99.2281 192.536 99.0216V92.0884C192.536 91.881 192.639 91.7776 192.847 91.7776H194.012C194.198 91.7776 194.33 91.8458 194.408 91.9811L196.955 96.2499V92.0884C196.955 91.881 197.059 91.7776 197.265 91.7776H198.41C198.624 91.7776 198.731 91.881 198.731 92.0884V99.0216Z" fill="#434244"/>
<path d="M204.867 96.229V97.7907H207.735C207.949 97.7907 208.056 97.8941 208.056 98.1015V99.0106C208.056 99.2243 207.949 99.3315 207.735 99.3315H203.37C203.163 99.3315 203.06 99.2284 203.06 99.0216V92.0884C203.06 91.881 203.163 91.7779 203.37 91.7779H207.692C207.899 91.7779 208.003 91.881 208.003 92.0884V93.0087C208.003 93.2224 207.899 93.3291 207.692 93.3291H204.867V94.7522H207.542C207.743 94.7522 207.842 94.8557 207.842 95.0628V95.9185C207.842 96.1256 207.743 96.229 207.542 96.229H204.867Z" fill="#434244"/>
<path d="M213.957 93.3826V97.7265H214.557C215.234 97.7265 215.727 97.5678 216.033 97.2504C216.34 96.9332 216.493 96.3537 216.493 95.5121C216.493 94.7056 216.338 94.1497 216.028 93.843C215.718 93.5364 215.223 93.3826 214.546 93.3826H213.957ZM212.428 99.3317C212.221 99.3317 212.117 99.2282 212.117 99.0214V92.0882C212.117 91.8811 212.221 91.7777 212.428 91.7777H214.621C215.869 91.7777 216.802 92.072 217.419 92.6606C218.035 93.2492 218.344 94.1995 218.344 95.5121C218.344 96.8672 218.037 97.8423 217.424 98.438C216.81 99.0341 215.88 99.3317 214.632 99.3317H212.428Z" fill="#434244"/>
<path d="M232.893 98.8875C232.354 99.255 231.653 99.4387 230.791 99.4387C229.771 99.4387 228.953 99.2819 228.34 98.9678C228.169 98.8823 228.112 98.7541 228.169 98.5828L228.469 97.7697C228.533 97.5698 228.665 97.509 228.865 97.5874C229.364 97.8019 229.906 97.9083 230.491 97.9083C231.404 97.9083 231.86 97.6699 231.86 97.1916C231.86 97.0419 231.794 96.9044 231.662 96.7795C231.53 96.6547 231.388 96.5587 231.235 96.4913C231.082 96.4231 230.844 96.3323 230.523 96.2179C230.238 96.1183 230.009 96.0309 229.838 95.9563C229.667 95.881 229.468 95.7737 229.239 95.6351C229.011 95.4959 228.834 95.3498 228.709 95.1964C228.585 95.0432 228.477 94.8451 228.389 94.6025C228.299 94.3597 228.255 94.0852 228.255 93.7785C228.255 93.0727 228.496 92.5429 228.977 92.1898C229.458 91.8366 230.152 91.66 231.058 91.66C231.936 91.66 232.653 91.8025 233.208 92.0883C233.387 92.1879 233.448 92.3166 233.39 92.4736L233.091 93.2441C233.02 93.4363 232.888 93.4971 232.695 93.4259C232.26 93.276 231.775 93.2009 231.24 93.2009C230.477 93.2009 230.095 93.4116 230.095 93.8321C230.095 93.9248 230.118 94.0125 230.165 94.0942C230.211 94.1767 230.261 94.2419 230.314 94.2925C230.367 94.342 230.464 94.4028 230.603 94.4743C230.743 94.5456 230.853 94.5992 230.935 94.6344C231.017 94.6705 231.162 94.7274 231.368 94.8058C231.625 94.9059 231.8 94.9733 231.893 95.0093C231.986 95.0445 232.139 95.1125 232.353 95.2126C232.566 95.3121 232.718 95.3977 232.807 95.4689C232.897 95.5402 233.012 95.6384 233.155 95.7632C233.297 95.8881 233.399 96.0163 233.46 96.1486C233.521 96.2806 233.576 96.4377 233.626 96.6195C233.676 96.8013 233.7 96.9993 233.7 97.2133C233.7 97.962 233.432 98.5201 232.893 98.8875Z" fill="#434244"/>
<path d="M241.465 96.3572L240.597 93.586H240.576L239.678 96.3572H241.465ZM241.336 91.7779C241.522 91.7779 241.646 91.8747 241.711 92.0669L244.096 98.9679C244.132 99.0746 244.127 99.1621 244.081 99.2303C244.034 99.2977 243.961 99.3315 243.861 99.3315H242.588C242.403 99.3315 242.278 99.2356 242.214 99.0425L241.818 97.887H239.335L238.95 99.0425C238.886 99.2356 238.765 99.3315 238.586 99.3315H237.303C237.202 99.3315 237.13 99.2977 237.083 99.2303C237.037 99.1621 237.032 99.0746 237.067 98.9679L239.453 92.0669C239.517 91.8747 239.642 91.7779 239.827 91.7779H241.336Z" fill="#434244"/>
<path d="M249.741 96.4322V99.0216C249.741 99.2281 249.637 99.3315 249.431 99.3315H248.233C248.026 99.3315 247.923 99.2281 247.923 99.0216V92.0884C247.923 91.881 248.026 91.7776 248.233 91.7776H252.523C252.73 91.7776 252.833 91.881 252.833 92.0884V93.0084C252.833 93.2153 252.73 93.3184 252.523 93.3184H249.741V94.9233H252.405C252.612 94.9233 252.715 95.0267 252.715 95.2333V96.1327C252.715 96.3321 252.612 96.4322 252.405 96.4322H249.741Z" fill="#434244"/>
<path d="M258.639 96.229V97.7907H261.506C261.72 97.7907 261.827 97.8941 261.827 98.1015V99.0106C261.827 99.2243 261.72 99.3315 261.506 99.3315H257.142C256.934 99.3315 256.831 99.2284 256.831 99.0216V92.0884C256.831 91.881 256.934 91.7779 257.142 91.7779H261.463C261.67 91.7779 261.774 91.881 261.774 92.0884V93.0087C261.774 93.2224 261.67 93.3291 261.463 93.3291H258.639V94.7522H261.314C261.514 94.7522 261.614 94.8557 261.614 95.0628V95.9185C261.614 96.1256 261.514 96.229 261.314 96.229H258.639Z" fill="#434244"/>
<path d="M265.46 92.0884C265.46 91.881 265.564 91.7779 265.771 91.7779H270.767C270.982 91.7779 271.089 91.881 271.089 92.0884V93.0937C271.089 93.3082 270.982 93.4147 270.767 93.4147H269.195V99.0216C269.195 99.2281 269.088 99.3315 268.874 99.3315H267.676C267.462 99.3315 267.354 99.2281 267.354 99.0216V93.4147H265.771C265.564 93.4147 265.46 93.3082 265.46 93.0937V92.0884Z" fill="#434244"/>
<path d="M278.895 99.0216C278.895 99.2281 278.791 99.3315 278.584 99.3315H277.365C277.157 99.3315 277.054 99.2281 277.054 99.0216V96.55L274.615 92.1629C274.558 92.07 274.551 91.983 274.593 91.9005C274.636 91.8188 274.711 91.7776 274.818 91.7776H276.091C276.277 91.7776 276.416 91.8744 276.508 92.0667L277.525 94.0995L277.964 95.1054H277.985L278.424 94.0995L279.44 92.0667C279.533 91.8744 279.672 91.7776 279.857 91.7776H281.131C281.238 91.7776 281.313 91.8188 281.356 91.9005C281.398 91.983 281.391 92.07 281.334 92.1629L278.895 96.55V99.0216Z" fill="#434244"/>
</svg>
